<svg width="1920" height="1080" viewBox="0 0 1920 1080" fill="none" xmlns="http://www.w3.org/2000/svg">
<rect width="1920" height="1080" fill="white"/>
<path d="M732 401L717 392.34L717 409.66L732 401ZM611 402.5L718.5 402.5L718.5 399.5L611 399.5L611 402.5Z" fill="#9277A6"/>
<path d="M1046 401L1031 392.34L1031 409.66L1046 401ZM841 402.5L1032.5 402.5L1032.5 399.5L841 399.5L841 402.5Z" fill="#9277A6"/>
<path d="M808 784L823 792.66V775.34L808 784ZM1059 782.5H821.5V785.5H1059V782.5Z" fill="#9277A6"/>
<path d="M1407 784L1392 775.34L1392 792.66L1407 784ZM1157 785.5L1393.5 785.5L1393.5 782.5L1157 782.5L1157 785.5Z" fill="#9277A6"/>
<path d="M1507 784L1522 775.34L1522 792.66L1507 784ZM1760 785.5L1520.5 785.5L1520.5 782.5L1760 782.5L1760 785.5Z" fill="#9277A6"/>
<path d="M502 401L487 409.66L487 392.34L502 401ZM237 399.5L488.5 399.5L488.5 402.5L237 402.5L237 399.5Z" fill="#9277A6"/>
<path d="M554 784L569 792.66V775.34L554 784ZM709 782.5H567.5V785.5H709V782.5Z" fill="#9277A6"/>
<path d="M1111 724L1119.66 709H1102.34L1111 724ZM1109.5 485V710.5H1112.5V485H1109.5Z" fill="#9277A6"/>
<path d="M232 784L247 792.66V775.34L232 784ZM393 782.5H245.5V785.5H393V782.5Z" fill="#9277A6"/>
<path d="M786 246H787.5V244.5H786V246ZM786 345L794.66 330H777.34L786 345ZM649 247.5H786V244.5H649V247.5ZM784.5 246V331.5H787.5V246H784.5Z" fill="#9277A6"/>
<path d="M1319.58 400.851V402.351H1321.08V400.851H1319.58ZM1319.58 265.495V263.995H1318.08V265.495L1319.58 265.495ZM1427.5 265.495L1412.5 256.834V274.155L1427.5 265.495ZM1176.3 402.351H1319.58V399.351H1176.3V402.351ZM1321.08 400.851L1321.08 265.495L1318.08 265.495L1318.08 400.851H1321.08ZM1319.58 266.995H1414V263.995H1319.58V266.995Z" fill="#9277A6"/>
<path d="M1319.62 518.292V519.792H1318.12V518.292H1319.62ZM1427.11 518.292L1412.11 526.952V509.632L1427.11 518.292ZM1321.12 393.287V518.292H1318.12V393.287H1321.12ZM1319.62 516.792H1413.61V519.792H1319.62V516.792Z" fill="#9277A6"/>
</svg>
