<svg width="91" height="95" viewBox="0 0 91 95" fill="none" xmlns="http://www.w3.org/2000/svg">
<rect x="0.5" y="-0.5" width="90" height="3.8718" transform="matrix(1 0 0 -1 0 94)" fill="url(#paint0_linear_113_638)" stroke="#525252"/>
<rect x="0.5" y="-0.5" width="2.99123" height="85.8803" transform="matrix(1 0 0 -1 8.7807 89.9402)" fill="url(#paint1_linear_113_638)" stroke="#525252"/>
<rect x="0.5" y="-0.5" width="7.7807" height="3.87179" transform="matrix(1 0 0 -1 3.99123 3.8718)" fill="url(#paint2_linear_113_638)" stroke="#525252"/>
<rect x="0.5" y="-0.5" width="7.7807" height="3.87179" transform="matrix(1 0 0 -1 79.8246 3.8718)" fill="url(#paint3_linear_113_638)" stroke="#525252"/>
<rect x="0.5" y="-0.5" width="2.99123" height="85.8803" transform="matrix(1 0 0 -1 79.8246 89.9402)" fill="url(#paint4_linear_113_638)" stroke="#525252"/>
<rect x="12.4737" y="13.4915" width="67.6491" height="76.9487" fill="url(#paint5_linear_113_638)" stroke="#525252"/>
<defs>
<linearGradient id="paint0_linear_113_638" x1="6.08803" y1="0.365385" x2="6.84503" y2="10.6551" gradientUnits="userSpaceOnUse">
<stop stop-color="#CDCDCD"/>
<stop offset="1" stop-color="#979797"/>
</linearGradient>
<linearGradient id="paint1_linear_113_638" x1="0.267019" y1="6.51603" x2="6.42772" y2="6.72198" gradientUnits="userSpaceOnUse">
<stop stop-color="#CDCDCD"/>
<stop offset="1" stop-color="#979797"/>
</linearGradient>
<linearGradient id="paint2_linear_113_638" x1="0.587441" y1="0.365385" x2="5.57552" y2="6.90762" gradientUnits="userSpaceOnUse">
<stop stop-color="#CDCDCD"/>
<stop offset="1" stop-color="#979797"/>
</linearGradient>
<linearGradient id="paint3_linear_113_638" x1="0.587441" y1="0.365385" x2="5.57552" y2="6.90761" gradientUnits="userSpaceOnUse">
<stop stop-color="#CDCDCD"/>
<stop offset="1" stop-color="#979797"/>
</linearGradient>
<linearGradient id="paint4_linear_113_638" x1="0.267019" y1="6.51603" x2="6.42772" y2="6.72198" gradientUnits="userSpaceOnUse">
<stop stop-color="#CDCDCD"/>
<stop offset="1" stop-color="#979797"/>
</linearGradient>
<linearGradient id="paint5_linear_113_638" x1="46.2982" y1="12.9915" x2="46.2982" y2="90.9402" gradientUnits="userSpaceOnUse">
<stop stop-color="#808080"/>
<stop offset="1" stop-color="#585858"/>
</linearGradient>
</defs>
</svg>
