<svg width="91" height="94" viewBox="0 0 91 94" fill="none" xmlns="http://www.w3.org/2000/svg">
<rect x="0.5" y="-0.5" width="90" height="3.82051" transform="matrix(1 0 0 -1 0 93)" fill="url(#paint0_linear_113_633)" stroke="#525252"/>
<rect x="0.5" y="-0.5" width="2.99123" height="84.9658" transform="matrix(1 0 0 -1 8.7807 88.9829)" fill="url(#paint1_linear_113_633)" stroke="#525252"/>
<rect x="0.5" y="-0.5" width="7.7807" height="3.82051" transform="matrix(1 0 0 -1 3.99124 3.82051)" fill="url(#paint2_linear_113_633)" stroke="#525252"/>
<rect x="0.5" y="-0.5" width="7.7807" height="3.82051" transform="matrix(1 0 0 -1 79.8246 3.82051)" fill="url(#paint3_linear_113_633)" stroke="#525252"/>
<rect x="0.5" y="-0.5" width="2.99123" height="84.9658" transform="matrix(1 0 0 -1 79.8246 88.9829)" fill="url(#paint4_linear_113_633)" stroke="#525252"/>
<rect x="12.4737" y="32.6368" width="67.6491" height="56.8461" fill="url(#paint5_linear_113_633)" stroke="#525252"/>
<defs>
<linearGradient id="paint0_linear_113_633" x1="6.08803" y1="0.361538" x2="6.82926" y2="10.544" gradientUnits="userSpaceOnUse">
<stop stop-color="#CDCDCD"/>
<stop offset="1" stop-color="#979797"/>
</linearGradient>
<linearGradient id="paint1_linear_113_633" x1="0.267019" y1="6.44744" x2="6.42757" y2="6.65558" gradientUnits="userSpaceOnUse">
<stop stop-color="#CDCDCD"/>
<stop offset="1" stop-color="#979797"/>
</linearGradient>
<linearGradient id="paint2_linear_113_633" x1="0.587441" y1="0.361539" x2="5.50895" y2="6.88513" gradientUnits="userSpaceOnUse">
<stop stop-color="#CDCDCD"/>
<stop offset="1" stop-color="#979797"/>
</linearGradient>
<linearGradient id="paint3_linear_113_633" x1="0.587441" y1="0.361539" x2="5.50895" y2="6.88513" gradientUnits="userSpaceOnUse">
<stop stop-color="#CDCDCD"/>
<stop offset="1" stop-color="#979797"/>
</linearGradient>
<linearGradient id="paint4_linear_113_633" x1="0.267019" y1="6.44744" x2="6.42757" y2="6.65558" gradientUnits="userSpaceOnUse">
<stop stop-color="#CDCDCD"/>
<stop offset="1" stop-color="#979797"/>
</linearGradient>
<linearGradient id="paint5_linear_113_633" x1="46.2983" y1="32.1368" x2="46.2983" y2="89.9829" gradientUnits="userSpaceOnUse">
<stop stop-color="#DD4A00"/>
<stop offset="1" stop-color="#993300"/>
</linearGradient>
</defs>
</svg>
