<svg width="91" height="93" viewBox="0 0 91 93" fill="none" xmlns="http://www.w3.org/2000/svg">
<rect x="0.5" y="0.5" width="90" height="92" stroke="black"/>
<rect x="0.5" y="-0.5" width="90" height="3.76923" transform="matrix(1 0 0 -1 0 92)" fill="url(#paint0_linear_55_1615)" stroke="#525252"/>
<rect x="0.5" y="-0.5" width="2.99123" height="84.0513" transform="matrix(1 0 0 -1 8.78076 88.0256)" fill="url(#paint1_linear_55_1615)" stroke="#525252"/>
<rect x="0.5" y="-0.5" width="7.7807" height="3.76923" transform="matrix(1 0 0 -1 3.99121 3.76923)" fill="url(#paint2_linear_55_1615)" stroke="#525252"/>
<rect x="0.5" y="-0.5" width="7.7807" height="3.76923" transform="matrix(1 0 0 -1 79.8246 3.76923)" fill="url(#paint3_linear_55_1615)" stroke="#525252"/>
<rect x="0.5" y="-0.5" width="2.99123" height="84.0513" transform="matrix(1 0 0 -1 79.8246 88.0256)" fill="url(#paint4_linear_55_1615)" stroke="#525252"/>
<defs>
<linearGradient id="paint0_linear_55_1615" x1="6.08803" y1="0.357693" x2="6.81365" y2="10.433" gradientUnits="userSpaceOnUse">
<stop stop-color="#CDCDCD"/>
<stop offset="1" stop-color="#979797"/>
</linearGradient>
<linearGradient id="paint1_linear_55_1615" x1="0.267019" y1="6.37885" x2="6.42742" y2="6.58922" gradientUnits="userSpaceOnUse">
<stop stop-color="#CDCDCD"/>
<stop offset="1" stop-color="#979797"/>
</linearGradient>
<linearGradient id="paint2_linear_55_1615" x1="0.587441" y1="0.357692" x2="5.44206" y2="6.86181" gradientUnits="userSpaceOnUse">
<stop stop-color="#CDCDCD"/>
<stop offset="1" stop-color="#979797"/>
</linearGradient>
<linearGradient id="paint3_linear_55_1615" x1="0.587441" y1="0.357692" x2="5.44206" y2="6.86181" gradientUnits="userSpaceOnUse">
<stop stop-color="#CDCDCD"/>
<stop offset="1" stop-color="#979797"/>
</linearGradient>
<linearGradient id="paint4_linear_55_1615" x1="0.267019" y1="6.37885" x2="6.42742" y2="6.58922" gradientUnits="userSpaceOnUse">
<stop stop-color="#CDCDCD"/>
<stop offset="1" stop-color="#979797"/>
</linearGradient>
</defs>
</svg>
