<svg width="141" height="94" viewBox="0 0 141 94" fill="none" xmlns="http://www.w3.org/2000/svg">
<mask id="path-1-inside-1_161_1161" fill="white">
<path fill-rule="evenodd" clip-rule="evenodd" d="M117 0H10.5V90H117V0ZM113.25 3.75H14.25V86.25H113.25V3.75Z"/>
</mask>
<path fill-rule="evenodd" clip-rule="evenodd" d="M117 0H10.5V90H117V0ZM113.25 3.75H14.25V86.25H113.25V3.75Z" fill="url(#paint0_linear_161_1161)"/>
<path d="M10.5 0V-1H9.5V0H10.5ZM117 0H118V-1H117V0ZM10.5 90H9.5V91H10.5V90ZM117 90V91H118V90H117ZM14.25 3.75V2.75H13.25V3.75H14.25ZM113.25 3.75H114.25V2.75H113.25V3.75ZM14.25 86.25H13.25V87.25H14.25V86.25ZM113.25 86.25V87.25H114.25V86.25H113.25ZM10.5 1H117V-1H10.5V1ZM11.5 90V0H9.5V90H11.5ZM117 89H10.5V91H117V89ZM116 0V90H118V0H116ZM14.25 4.75H113.25V2.75H14.25V4.75ZM15.25 86.25V3.75H13.25V86.25H15.25ZM113.25 85.25H14.25V87.25H113.25V85.25ZM112.25 3.75V86.25H114.25V3.75H112.25Z" fill="#525252" mask="url(#path-1-inside-1_161_1161)"/>
<rect x="0.5" y="-0.5" width="126.5" height="3.5" transform="matrix(1 0 0 -1 0 92.75)" fill="url(#paint1_linear_161_1161)" stroke="#525252"/>
<rect x="0.5" y="-0.5" width="23.75" height="17" transform="matrix(1 0 0 -1 116.25 84.5)" fill="url(#paint2_linear_161_1161)" stroke="#525252"/>
<rect x="0.5" y="-0.5" width="38.75" height="7.25" transform="matrix(1 0 0 -1 77.25 79.25)" fill="url(#paint3_linear_161_1161)" stroke="#525252"/>
<circle cx="128.625" cy="76.125" r="9.625" fill="url(#paint4_linear_161_1161)" stroke="#555555"/>
<path d="M126.904 79.5H125.545V76.728H122.998V79.5H121.639V73.074H122.998V75.594H125.545V73.074H126.904V79.5ZM130.924 79.5H127.999V78.726L128.782 78.366V74.208L127.999 73.848V73.074H130.924V73.848L130.141 74.208V78.366L130.924 78.726V79.5ZM134.494 79.5H133.135V74.208H131.389V73.074H136.24V74.208H134.494V79.5Z" fill="#353535"/>
<defs>
<linearGradient id="paint0_linear_161_1161" x1="17.625" y1="6.75" x2="112.125" y2="88.125" gradientUnits="userSpaceOnUse">
<stop stop-color="#CDCDCD"/>
<stop offset="1" stop-color="#979797"/>
</linearGradient>
<linearGradient id="paint1_linear_161_1161" x1="8.52993" y1="0.3375" x2="8.99231" y2="9.87092" gradientUnits="userSpaceOnUse">
<stop stop-color="#CDCDCD"/>
<stop offset="1" stop-color="#979797"/>
</linearGradient>
<linearGradient id="paint2_linear_161_1161" x1="1.65581" y1="1.35" x2="20.7675" y2="20.4729" gradientUnits="userSpaceOnUse">
<stop stop-color="#CDCDCD"/>
<stop offset="1" stop-color="#979797"/>
</linearGradient>
<linearGradient id="paint3_linear_161_1161" x1="1.125" y1="7.5" x2="15.381" y2="24.3453" gradientUnits="userSpaceOnUse">
<stop stop-color="#EEEEEE"/>
<stop offset="1" stop-color="#979797"/>
</linearGradient>
<linearGradient id="paint4_linear_161_1161" x1="120.882" y1="67.7868" x2="135.772" y2="84.4632" gradientUnits="userSpaceOnUse">
<stop stop-color="#05FF01"/>
<stop offset="1" stop-color="#01EBA5"/>
</linearGradient>
</defs>
</svg>
