<svg width="128" height="94" viewBox="0 0 128 94" fill="none" xmlns="http://www.w3.org/2000/svg">
<mask id="path-1-inside-1_161_1069" fill="white">
<path fill-rule="evenodd" clip-rule="evenodd" d="M117 0H10.5V90H117V0ZM113.25 3.75H14.25V86.25H113.25V3.75Z"/>
</mask>
<path fill-rule="evenodd" clip-rule="evenodd" d="M117 0H10.5V90H117V0ZM113.25 3.75H14.25V86.25H113.25V3.75Z" fill="url(#paint0_linear_161_1069)"/>
<path d="M10.5 0V-1H9.5V0H10.5ZM117 0H118V-1H117V0ZM10.5 90H9.5V91H10.5V90ZM117 90V91H118V90H117ZM14.25 3.75V2.75H13.25V3.75H14.25ZM113.25 3.75H114.25V2.75H113.25V3.75ZM14.25 86.25H13.25V87.25H14.25V86.25ZM113.25 86.25V87.25H114.25V86.25H113.25ZM10.5 1H117V-1H10.5V1ZM11.5 90V0H9.5V90H11.5ZM117 89H10.5V91H117V89ZM116 0V90H118V0H116ZM14.25 4.75H113.25V2.75H14.25V4.75ZM15.25 86.25V3.75H13.25V86.25H15.25ZM113.25 85.25H14.25V87.25H113.25V85.25ZM112.25 3.75V86.25H114.25V3.75H112.25Z" fill="#525252" mask="url(#path-1-inside-1_161_1069)"/>
<rect x="0.5" y="-0.5" width="126.5" height="3.5" transform="matrix(1 0 0 -1 0 92.75)" fill="url(#paint1_linear_161_1069)" stroke="#525252"/>
<rect x="14" y="3.5" width="99.5" height="83" fill="url(#paint2_linear_161_1069)" stroke="#525252"/>
<defs>
<linearGradient id="paint0_linear_161_1069" x1="17.625" y1="6.75" x2="112.125" y2="88.125" gradientUnits="userSpaceOnUse">
<stop stop-color="#CDCDCD"/>
<stop offset="1" stop-color="#979797"/>
</linearGradient>
<linearGradient id="paint1_linear_161_1069" x1="8.52993" y1="0.3375" x2="8.99231" y2="9.87092" gradientUnits="userSpaceOnUse">
<stop stop-color="#CDCDCD"/>
<stop offset="1" stop-color="#979797"/>
</linearGradient>
<linearGradient id="paint2_linear_161_1069" x1="63.75" y1="3" x2="63.75" y2="87" gradientUnits="userSpaceOnUse">
<stop stop-color="#22B5FF"/>
<stop offset="1" stop-color="#020AFF"/>
</linearGradient>
</defs>
</svg>
