<svg width="54" height="53" viewBox="0 0 54 53" fill="none" xmlns="http://www.w3.org/2000/svg">
<mask id="path-1-inside-1_165_1180" fill="white">
<path fill-rule="evenodd" clip-rule="evenodd" d="M48.1119 0H6.53949V50.4H48.1119V0ZM45.7763 2.1H8.87502V48.3H45.7763V2.1Z"/>
</mask>
<path fill-rule="evenodd" clip-rule="evenodd" d="M48.1119 0H6.53949V50.4H48.1119V0ZM45.7763 2.1H8.87502V48.3H45.7763V2.1Z" fill="url(#paint0_linear_165_1180)"/>
<path d="M6.53949 0V-1H5.53949V0H6.53949ZM48.1119 0H49.1119V-1H48.1119V0ZM6.53949 50.4H5.53949V51.4H6.53949V50.4ZM48.1119 50.4V51.4H49.1119V50.4H48.1119ZM8.87502 2.1V1.1H7.87502V2.1H8.87502ZM45.7763 2.1H46.7763V1.1H45.7763V2.1ZM8.87502 48.3H7.87502V49.3H8.87502V48.3ZM45.7763 48.3V49.3H46.7763V48.3H45.7763ZM6.53949 1H48.1119V-1H6.53949V1ZM7.53949 50.4V0H5.53949V50.4H7.53949ZM48.1119 49.4H6.53949V51.4H48.1119V49.4ZM47.1119 0V50.4H49.1119V0H47.1119ZM8.87502 3.1H45.7763V1.1H8.87502V3.1ZM9.87502 48.3V2.1H7.87502V48.3H9.87502ZM45.7763 47.3H8.87502V49.3H45.7763V47.3ZM44.7763 2.1V48.3H46.7763V2.1H44.7763Z" fill="#525252" mask="url(#path-1-inside-1_165_1180)"/>
<rect x="0.5" y="-0.5" width="52.25" height="1.52" transform="matrix(1 0 0 -1 0 51.5)" fill="url(#paint1_linear_165_1180)" stroke="#525252"/>
<rect x="8.9079" y="25.7" width="36.8355" height="22.52" fill="url(#paint2_linear_165_1180)" stroke="#525252"/>
<defs>
<linearGradient id="paint0_linear_165_1180" x1="9.32074" y1="3.78" x2="56.5468" y2="32.1271" gradientUnits="userSpaceOnUse">
<stop stop-color="#CDCDCD"/>
<stop offset="1" stop-color="#979797"/>
</linearGradient>
<linearGradient id="paint1_linear_165_1180" x1="3.5625" y1="0.189" x2="3.90904" y2="5.51774" gradientUnits="userSpaceOnUse">
<stop stop-color="#CDCDCD"/>
<stop offset="1" stop-color="#979797"/>
</linearGradient>
<linearGradient id="paint2_linear_165_1180" x1="27.3257" y1="25.2" x2="27.3257" y2="48.72" gradientUnits="userSpaceOnUse">
<stop stop-color="#22B5FF"/>
<stop offset="1" stop-color="#020AFF"/>
</linearGradient>
</defs>
</svg>
