<svg width="86" height="94" viewBox="0 0 86 94" fill="none" xmlns="http://www.w3.org/2000/svg">
<mask id="path-1-inside-1_161_1094" fill="white">
<path fill-rule="evenodd" clip-rule="evenodd" d="M77.25 0H10.5V90H77.25V0ZM73.5 3.75H14.25V86.25H73.5V3.75Z"/>
</mask>
<path fill-rule="evenodd" clip-rule="evenodd" d="M77.25 0H10.5V90H77.25V0ZM73.5 3.75H14.25V86.25H73.5V3.75Z" fill="url(#paint0_linear_161_1094)"/>
<path d="M10.5 0V-1H9.5V0H10.5ZM77.25 0H78.25V-1H77.25V0ZM10.5 90H9.5V91H10.5V90ZM77.25 90V91H78.25V90H77.25ZM14.25 3.75V2.75H13.25V3.75H14.25ZM73.5 3.75H74.5V2.75H73.5V3.75ZM14.25 86.25H13.25V87.25H14.25V86.25ZM73.5 86.25V87.25H74.5V86.25H73.5ZM10.5 1H77.25V-1H10.5V1ZM11.5 90V0H9.5V90H11.5ZM77.25 89H10.5V91H77.25V89ZM76.25 0V90H78.25V0H76.25ZM14.25 4.75H73.5V2.75H14.25V4.75ZM15.25 86.25V3.75H13.25V86.25H15.25ZM73.5 85.25H14.25V87.25H73.5V85.25ZM72.5 3.75V86.25H74.5V3.75H72.5Z" fill="#525252" mask="url(#path-1-inside-1_161_1094)"/>
<rect x="0.5" y="-0.5" width="84.5" height="3.5" transform="matrix(1 0 0 -1 0 92.75)" fill="url(#paint1_linear_161_1094)" stroke="#525252"/>
<rect x="14" y="24.5" width="59.75" height="62" fill="url(#paint2_linear_161_1094)" stroke="#525252"/>
<defs>
<linearGradient id="paint0_linear_161_1094" x1="14.9657" y1="6.75" x2="94.8455" y2="49.862" gradientUnits="userSpaceOnUse">
<stop stop-color="#CDCDCD"/>
<stop offset="1" stop-color="#979797"/>
</linearGradient>
<linearGradient id="paint1_linear_161_1094" x1="5.72007" y1="0.3375" x2="6.40761" y2="9.84362" gradientUnits="userSpaceOnUse">
<stop stop-color="#CDCDCD"/>
<stop offset="1" stop-color="#979797"/>
</linearGradient>
<linearGradient id="paint2_linear_161_1094" x1="43.875" y1="24" x2="43.875" y2="87" gradientUnits="userSpaceOnUse">
<stop stop-color="#22B5FF"/>
<stop offset="1" stop-color="#020AFF"/>
</linearGradient>
</defs>
</svg>
